<svg version="1.1" id="Layer_1" xmlns="http://www.w3.org/2000/svg" xmlns:xlink="http://www.w3.org/1999/xlink" x="0px" y="0px"
	 width="100%" viewBox="0 0 236 261" enable-background="new 0 0 236 261" xml:space="preserve">
<path fill="#020202" opacity="1.000000" stroke="none" 
	d="
M126.000000,262.000000 
	C84.000000,262.000000 42.500004,262.000000 1.000005,262.000000 
	C1.000004,175.000015 1.000004,88.000015 1.000002,1.000017 
	C79.666656,1.000011 158.333313,1.000011 236.999969,1.000006 
	C236.999985,87.999977 236.999985,174.999954 237.000000,261.999969 
	C200.166672,262.000000 163.333328,262.000000 126.000000,262.000000 
M98.500000,255.017212 
	C139.822433,255.017075 181.144852,255.020340 222.467285,255.013565 
	C229.560303,255.012390 230.823700,253.738373 230.828842,246.510574 
	C230.844360,224.682877 230.845779,202.855164 230.830750,181.027466 
	C230.821793,168.031769 231.031158,155.028778 230.663635,142.042603 
	C230.326904,130.144440 224.790665,121.050011 214.147385,115.416183 
	C202.960815,109.494774 191.780136,103.549492 180.430511,97.951981 
	C164.932205,90.308403 149.264099,83.009491 133.718399,75.460640 
	C132.754227,74.992447 131.619354,73.654419 131.587463,72.687340 
	C131.391083,66.730850 131.488937,60.764652 131.488937,54.252975 
	C136.649658,54.252975 141.275269,54.307133 145.899048,54.238712 
	C151.200775,54.160263 152.830414,52.580349 152.946518,47.443630 
	C153.021805,44.112869 153.014526,40.777893 152.946823,37.446785 
	C152.836960,32.041702 151.425644,30.623423 146.128235,30.574640 
	C141.376678,30.530882 136.624405,30.565424 131.468140,30.565424 
	C131.468140,25.181477 131.570068,20.540550 131.441666,15.906007 
	C131.289932,10.429541 129.918152,9.144643 124.552490,9.082510 
	C121.387062,9.045854 118.220802,9.063010 115.055031,9.077909 
	C109.038437,9.106223 107.655365,10.357239 107.504051,16.282722 
	C107.386398,20.889874 107.480530,25.502432 107.480530,30.566002 
	C102.048470,30.566002 97.251534,30.702532 92.466087,30.526529 
	C87.934135,30.359850 86.079094,32.618202 86.043037,36.839188 
	C86.011726,40.504578 86.033134,44.170460 86.038490,47.836113 
	C86.044739,52.118382 88.095230,54.310764 92.477051,54.262177 
	C97.270142,54.209030 102.064285,54.250088 107.456482,54.250088 
	C107.456482,60.866703 107.584122,66.988754 107.319611,73.093811 
	C107.279686,74.015366 105.547272,75.168755 104.366150,75.683800 
	C98.732903,78.140266 92.822937,80.028915 87.369865,82.819931 
	C66.464249,93.519920 45.663578,104.426849 24.890146,115.382462 
	C14.063304,121.092384 8.449683,130.312622 8.400967,142.495758 
	C8.261049,177.486160 8.344188,212.477509 8.359457,247.468475 
	C8.362205,253.764694 9.633839,255.007553 16.021019,255.010849 
	C43.180672,255.024902 70.340340,255.017059 98.500000,255.017212 
z"/>
<path fill="#F7F7F7" opacity="1.000000" stroke="none" 
	d="
M98.000000,255.017212 
	C70.340340,255.017059 43.180672,255.024902 16.021019,255.010849 
	C9.633839,255.007553 8.362205,253.764694 8.359457,247.468475 
	C8.344188,212.477509 8.261049,177.486160 8.400967,142.495758 
	C8.449683,130.312622 14.063304,121.092384 24.890146,115.382462 
	C45.663578,104.426849 66.464249,93.519920 87.369865,82.819931 
	C92.822937,80.028915 98.732903,78.140266 104.366150,75.683800 
	C105.547272,75.168755 107.279686,74.015366 107.319611,73.093811 
	C107.584122,66.988754 107.456482,60.866703 107.456482,54.250088 
	C102.064285,54.250088 97.270142,54.209030 92.477051,54.262177 
	C88.095230,54.310764 86.044739,52.118382 86.038490,47.836113 
	C86.033134,44.170460 86.011726,40.504578 86.043037,36.839188 
	C86.079094,32.618202 87.934135,30.359850 92.466087,30.526529 
	C97.251534,30.702532 102.048470,30.566002 107.480530,30.566002 
	C107.480530,25.502432 107.386398,20.889874 107.504051,16.282722 
	C107.655365,10.357239 109.038437,9.106223 115.055031,9.077909 
	C118.220802,9.063010 121.387062,9.045854 124.552490,9.082510 
	C129.918152,9.144643 131.289932,10.429541 131.441666,15.906007 
	C131.570068,20.540550 131.468140,25.181477 131.468140,30.565424 
	C136.624405,30.565424 141.376678,30.530882 146.128235,30.574640 
	C151.425644,30.623423 152.836960,32.041702 152.946823,37.446785 
	C153.014526,40.777893 153.021805,44.112869 152.946518,47.443630 
	C152.830414,52.580349 151.200775,54.160263 145.899048,54.238712 
	C141.275269,54.307133 136.649658,54.252975 131.488937,54.252975 
	C131.488937,60.764652 131.391083,66.730850 131.587463,72.687340 
	C131.619354,73.654419 132.754227,74.992447 133.718399,75.460640 
	C149.264099,83.009491 164.932205,90.308403 180.430511,97.951981 
	C191.780136,103.549492 202.960815,109.494774 214.147385,115.416183 
	C224.790665,121.050011 230.326904,130.144440 230.663635,142.042603 
	C231.031158,155.028778 230.821793,168.031769 230.830750,181.027466 
	C230.845779,202.855164 230.844360,224.682877 230.828842,246.510574 
	C230.823700,253.738373 229.560303,255.012390 222.467285,255.013565 
	C181.144852,255.020340 139.822433,255.017075 98.000000,255.017212 
M68.499886,245.240112 
	C119.113960,245.240112 169.728027,245.240112 220.588623,245.240112 
	C220.588623,239.495728 220.588623,234.257095 220.588623,228.751831 
	C153.097916,228.751831 85.857056,228.751831 18.391644,228.751831 
	C18.391644,234.267838 18.391644,239.509109 18.391644,245.240112 
	C34.926567,245.240112 51.213223,245.240112 68.499886,245.240112 
M135.990097,135.748718 
	C134.877228,131.997635 134.496323,127.787659 132.494171,124.594101 
	C128.702255,118.545753 121.030388,116.477142 114.369072,118.696327 
	C107.576782,120.959160 103.055916,127.106667 103.030113,134.713608 
	C102.949844,158.375305 102.999924,182.037445 102.999489,205.699402 
	C102.999405,209.835571 102.999481,213.971741 102.999481,218.160049 
	C106.972244,218.160049 110.523224,218.160049 114.466942,218.160049 
	C114.466942,210.536774 114.460495,203.238525 114.468826,195.940277 
	C114.476631,189.097229 116.164581,185.830414 119.743965,186.441681 
	C125.349960,187.399017 124.428772,192.067047 124.466431,195.969315 
	C124.538033,203.388794 124.487175,210.809433 124.487175,218.283905 
	C128.715118,218.283905 132.149292,218.283905 135.990112,218.283905 
	C135.990112,190.951126 135.990112,163.821976 135.990097,135.748718 
M145.960983,138.589630 
	C145.960983,165.175827 145.960983,191.762039 145.960983,218.188049 
	C148.645767,218.188049 150.731888,218.188049 153.009979,218.188049 
	C153.009979,188.935898 153.343796,159.986450 152.834305,131.051849 
	C152.648483,120.498741 146.784546,112.100235 137.910721,106.332924 
	C126.946487,99.207008 115.275490,98.587646 103.792725,104.747688 
	C92.367065,110.877090 86.041496,120.800011 85.933578,133.891068 
	C85.708488,161.197647 85.851265,188.507278 85.859535,215.815659 
	C85.859772,216.606979 86.046883,217.398224 86.162369,218.312256 
	C88.482483,218.312256 90.579224,218.312256 93.192787,218.312256 
	C93.192787,216.358109 93.192764,214.567810 93.192787,212.777512 
	C93.193230,186.634644 93.095467,160.491226 93.242157,134.349182 
	C93.301392,123.792847 98.305405,115.790802 107.641418,110.962547 
	C116.655792,106.300644 125.756889,106.915718 134.167694,112.618378 
	C142.927704,118.557785 146.266296,127.288208 145.960983,138.589630 
M156.618744,111.951241 
	C161.084778,119.433258 163.010757,127.523758 162.974838,136.239212 
	C162.869781,161.721756 162.937531,187.204987 162.937576,212.687958 
	C162.937592,214.478073 162.937592,216.268188 162.937592,218.165985 
	C165.602203,218.165985 167.820312,218.165985 170.162354,218.165985 
	C170.247635,217.014786 170.360825,216.197281 170.361099,215.379745 
	C170.370117,189.230560 170.434952,163.081039 170.305542,136.932495 
	C170.282639,132.303131 169.893143,127.579063 168.902603,123.067871 
	C164.834274,104.539497 148.782104,88.353317 131.938538,85.633987 
	C131.020584,89.590652 130.649078,92.541267 135.885361,94.380013 
	C144.592682,97.437637 151.264465,103.491150 156.618744,111.951241 
M68.853088,215.133362 
	C69.066803,221.731598 73.372864,217.292770 76.046715,218.313751 
	C76.046715,215.910660 76.046715,214.083954 76.046715,212.257233 
	C76.046753,186.444931 75.991951,160.632492 76.065582,134.820404 
	C76.116959,116.809700 86.476379,100.871712 102.816948,94.494881 
	C107.659492,92.605110 108.204788,89.980278 106.980263,85.599236 
	C106.117088,85.691887 105.302261,85.666855 104.552910,85.876183 
	C84.542587,91.465714 68.926247,111.900116 68.870926,132.767517 
	C68.798973,159.911880 68.852867,187.056564 68.853088,215.133362 
M41.969193,123.776024 
	C40.225803,123.305016 37.570702,121.912613 36.925293,122.551247 
	C35.500088,123.961472 34.377918,126.390770 34.367424,128.410736 
	C34.215401,157.681412 34.266006,186.953140 34.283611,216.224625 
	C34.283985,216.843536 34.468048,217.462357 34.581772,218.177795 
	C37.359394,218.177795 39.890499,218.177795 42.532185,218.177795 
	C42.532185,187.016312 42.532932,156.269821 42.522018,125.523315 
	C42.521904,125.201042 42.368568,124.878815 41.969193,123.776024 
M196.251053,159.499893 
	C196.251053,179.077332 196.251053,198.654785 196.251053,218.262268 
	C199.441574,218.262268 201.859116,218.262268 204.422363,218.262268 
	C204.543335,217.322235 204.695602,216.689804 204.695892,216.057312 
	C204.709457,186.735596 204.704956,157.413879 204.718811,128.092163 
	C204.720245,125.024696 204.201828,121.976318 200.506149,121.927361 
	C196.748398,121.877571 196.250031,124.960709 196.251755,128.011948 
	C196.257507,138.174591 196.252167,148.337234 196.251053,159.499893 
M24.755083,143.507599 
	C24.755083,138.539688 24.755083,133.571793 24.755083,128.603882 
	C19.759317,132.603653 18.062046,137.393509 18.074179,142.969116 
	C18.126333,166.936386 18.092850,190.903824 18.108177,214.871201 
	C18.108885,215.978180 18.279459,217.085068 18.371393,218.197754 
	C20.611986,218.197754 22.503267,218.197754 24.755056,218.197754 
	C24.755056,193.382050 24.755056,168.943222 24.755083,143.507599 
M220.882645,151.508942 
	C220.695053,143.419373 222.319412,134.851227 214.542633,127.924706 
	C214.542633,158.497360 214.542633,188.310638 214.542633,218.240082 
	C216.777115,218.240082 218.671280,218.240082 220.882645,218.240082 
	C220.882645,196.093277 220.882645,174.299622 220.882645,151.508942 
M186.744934,163.500122 
	C186.744934,151.821655 186.744934,140.143188 186.744934,127.373245 
	C181.533722,132.356293 180.025879,137.412796 180.026459,143.087509 
	C180.028900,166.874756 180.021927,190.661987 180.041931,214.449219 
	C180.042984,215.712067 180.259323,216.974731 180.372162,218.201813 
	C182.629089,218.201813 184.525711,218.201813 186.744934,218.201813 
	C186.744934,200.047043 186.744934,182.273590 186.744934,163.500122 
M58.943722,184.500000 
	C58.943035,170.698639 58.976845,156.897156 58.927444,143.095963 
	C58.901848,135.946640 56.741432,131.258606 52.578415,128.770844 
	C52.578415,158.553787 52.578415,188.363449 52.578415,218.221085 
	C54.833706,218.221085 56.732460,218.221085 58.943722,218.221085 
	C58.943722,207.073532 58.943722,196.286758 58.943722,184.500000 
M121.625992,64.502060 
	C121.629570,60.172764 121.541542,55.840973 121.659462,51.514793 
	C121.813377,45.867977 122.950966,44.795116 128.471619,44.746746 
	C132.134613,44.714653 135.804489,44.604023 139.459641,44.775902 
	C143.227936,44.953102 143.565826,43.273117 142.403122,40.090321 
	C137.567886,40.090321 132.919464,39.979698 128.278732,40.121292 
	C123.593597,40.264236 121.568100,38.022579 121.627174,33.491619 
	C121.674927,29.829050 121.801147,26.152697 121.533966,22.508751 
	C121.438713,21.209482 120.289986,19.987453 119.622116,18.730169 
	C118.859291,20.060261 117.557266,21.344069 117.438339,22.729435 
	C117.126167,26.366079 117.299843,30.047264 117.335190,33.710167 
	C117.376770,38.019169 115.401161,40.201984 110.975456,40.106277 
	C107.147491,40.023495 103.312469,40.198616 99.487564,40.062668 
	C95.788734,39.931198 95.180656,41.455467 96.756783,44.740944 
	C101.094337,44.740944 105.407898,44.730545 109.721390,44.743370 
	C116.262459,44.762814 117.292023,45.721710 117.319633,52.219158 
	C117.367744,63.541798 117.254402,74.865967 117.422478,86.186317 
	C117.446419,87.798820 118.667297,89.393555 119.334206,90.996513 
	C120.098137,89.325089 121.458260,87.675797 121.521286,85.978348 
	C121.774414,79.160736 121.625954,72.328217 121.625992,64.502060 
M176.191025,113.468857 
	C177.022675,115.876358 177.854309,118.283867 178.742004,120.853645 
	C182.449661,118.298058 185.653824,116.089516 189.327377,113.557426 
	C183.779968,110.666771 178.749420,108.045441 172.754715,104.921707 
	C174.094116,108.255577 174.999954,110.510269 176.191025,113.468857 
M56.347858,118.048439 
	C57.603031,118.985657 58.858204,119.922867 60.196701,120.922302 
	C62.114647,115.654556 63.826218,110.953629 65.973663,105.055550 
	C59.932823,108.200218 54.980812,110.778069 49.410141,113.677979 
	C52.153419,115.388870 53.960888,116.516129 56.347858,118.048439 
z"/>
<path fill="#080808" opacity="1.000000" stroke="none" 
	d="
M67.999878,245.240112 
	C51.213223,245.240112 34.926567,245.240112 18.391644,245.240112 
	C18.391644,239.509109 18.391644,234.267838 18.391644,228.751831 
	C85.857056,228.751831 153.097916,228.751831 220.588623,228.751831 
	C220.588623,234.257095 220.588623,239.495728 220.588623,245.240112 
	C169.728027,245.240112 119.113960,245.240112 67.999878,245.240112 
z"/>
<path fill="#030303" opacity="1.000000" stroke="none" 
	d="
M135.990112,136.220764 
	C135.990112,163.821976 135.990112,190.951126 135.990112,218.283905 
	C132.149292,218.283905 128.715118,218.283905 124.487175,218.283905 
	C124.487175,210.809433 124.538033,203.388794 124.466431,195.969315 
	C124.428772,192.067047 125.349960,187.399017 119.743965,186.441681 
	C116.164581,185.830414 114.476631,189.097229 114.468826,195.940277 
	C114.460495,203.238525 114.466942,210.536774 114.466942,218.160049 
	C110.523224,218.160049 106.972244,218.160049 102.999481,218.160049 
	C102.999481,213.971741 102.999405,209.835571 102.999489,205.699402 
	C102.999924,182.037445 102.949844,158.375305 103.030113,134.713608 
	C103.055916,127.106667 107.576782,120.959160 114.369072,118.696327 
	C121.030388,116.477142 128.702255,118.545753 132.494171,124.594101 
	C134.496323,127.787659 134.877228,131.997635 135.990112,136.220764 
z"/>
<path fill="#050505" opacity="1.000000" stroke="none" 
	d="
M145.960876,138.106094 
	C146.266296,127.288208 142.927704,118.557785 134.167694,112.618378 
	C125.756889,106.915718 116.655792,106.300644 107.641418,110.962547 
	C98.305405,115.790802 93.301392,123.792847 93.242157,134.349182 
	C93.095467,160.491226 93.193230,186.634644 93.192787,212.777512 
	C93.192764,214.567810 93.192787,216.358109 93.192787,218.312256 
	C90.579224,218.312256 88.482483,218.312256 86.162369,218.312256 
	C86.046883,217.398224 85.859772,216.606979 85.859535,215.815659 
	C85.851265,188.507278 85.708488,161.197647 85.933578,133.891068 
	C86.041496,120.800011 92.367065,110.877090 103.792725,104.747688 
	C115.275490,98.587646 126.946487,99.207008 137.910721,106.332924 
	C146.784546,112.100235 152.648483,120.498741 152.834305,131.051849 
	C153.343796,159.986450 153.009979,188.935898 153.009979,218.188049 
	C150.731888,218.188049 148.645767,218.188049 145.960983,218.188049 
	C145.960983,191.762039 145.960983,165.175827 145.960876,138.106094 
z"/>
<path fill="#060606" opacity="1.000000" stroke="none" 
	d="
M156.412506,111.648087 
	C151.264465,103.491150 144.592682,97.437637 135.885361,94.380013 
	C130.649078,92.541267 131.020584,89.590652 131.938538,85.633987 
	C148.782104,88.353317 164.834274,104.539497 168.902603,123.067871 
	C169.893143,127.579063 170.282639,132.303131 170.305542,136.932495 
	C170.434952,163.081039 170.370117,189.230560 170.361099,215.379745 
	C170.360825,216.197281 170.247635,217.014786 170.162354,218.165985 
	C167.820312,218.165985 165.602203,218.165985 162.937592,218.165985 
	C162.937592,216.268188 162.937592,214.478073 162.937576,212.687958 
	C162.937531,187.204987 162.869781,161.721756 162.974838,136.239212 
	C163.010757,127.523758 161.084778,119.433258 156.412506,111.648087 
z"/>
<path fill="#060606" opacity="1.000000" stroke="none" 
	d="
M68.852844,214.667236 
	C68.852867,187.056564 68.798973,159.911880 68.870926,132.767517 
	C68.926247,111.900116 84.542587,91.465714 104.552910,85.876183 
	C105.302261,85.666855 106.117088,85.691887 106.980263,85.599236 
	C108.204788,89.980278 107.659492,92.605110 102.816948,94.494881 
	C86.476379,100.871712 76.116959,116.809700 76.065582,134.820404 
	C75.991951,160.632492 76.046753,186.444931 76.046715,212.257233 
	C76.046715,214.083954 76.046715,215.910660 76.046715,218.313751 
	C73.372864,217.292770 69.066803,221.731598 68.852844,214.667236 
z"/>
<path fill="#181818" opacity="1.000000" stroke="none" 
	d="
M42.127975,124.166290 
	C42.368568,124.878815 42.521904,125.201042 42.522018,125.523315 
	C42.532932,156.269821 42.532185,187.016312 42.532185,218.177795 
	C39.890499,218.177795 37.359394,218.177795 34.581772,218.177795 
	C34.468048,217.462357 34.283985,216.843536 34.283611,216.224625 
	C34.266006,186.953140 34.215401,157.681412 34.367424,128.410736 
	C34.377918,126.390770 35.500088,123.961472 36.925293,122.551247 
	C37.570702,121.912613 40.225803,123.305016 42.127975,124.166290 
z"/>
<path fill="#181818" opacity="1.000000" stroke="none" 
	d="
M196.251068,158.999878 
	C196.252167,148.337234 196.257507,138.174591 196.251755,128.011948 
	C196.250031,124.960709 196.748398,121.877571 200.506149,121.927361 
	C204.201828,121.976318 204.720245,125.024696 204.718811,128.092163 
	C204.704956,157.413879 204.709457,186.735596 204.695892,216.057312 
	C204.695602,216.689804 204.543335,217.322235 204.422363,218.262268 
	C201.859116,218.262268 199.441574,218.262268 196.251053,218.262268 
	C196.251053,198.654785 196.251053,179.077332 196.251068,158.999878 
z"/>
<path fill="#191919" opacity="1.000000" stroke="none" 
	d="
M24.755070,144.005981 
	C24.755056,168.943222 24.755056,193.382050 24.755056,218.197754 
	C22.503267,218.197754 20.611986,218.197754 18.371393,218.197754 
	C18.279459,217.085068 18.108885,215.978180 18.108177,214.871201 
	C18.092850,190.903824 18.126333,166.936386 18.074179,142.969116 
	C18.062046,137.393509 19.759317,132.603653 24.755083,128.603882 
	C24.755083,133.571793 24.755083,138.539688 24.755070,144.005981 
z"/>
<path fill="#191919" opacity="1.000000" stroke="none" 
	d="
M220.882645,152.007462 
	C220.882645,174.299622 220.882645,196.093277 220.882645,218.240082 
	C218.671280,218.240082 216.777115,218.240082 214.542633,218.240082 
	C214.542633,188.310638 214.542633,158.497360 214.542633,127.924706 
	C222.319412,134.851227 220.695053,143.419373 220.882645,152.007462 
z"/>
<path fill="#171717" opacity="1.000000" stroke="none" 
	d="
M186.744934,164.000122 
	C186.744934,182.273590 186.744934,200.047043 186.744934,218.201813 
	C184.525711,218.201813 182.629089,218.201813 180.372162,218.201813 
	C180.259323,216.974731 180.042984,215.712067 180.041931,214.449219 
	C180.021927,190.661987 180.028900,166.874756 180.026459,143.087509 
	C180.025879,137.412796 181.533722,132.356293 186.744934,127.373245 
	C186.744934,140.143188 186.744934,151.821655 186.744934,164.000122 
z"/>
<path fill="#171717" opacity="1.000000" stroke="none" 
	d="
M58.943722,185.000000 
	C58.943722,196.286758 58.943722,207.073532 58.943722,218.221085 
	C56.732460,218.221085 54.833706,218.221085 52.578415,218.221085 
	C52.578415,188.363449 52.578415,158.553787 52.578415,128.770844 
	C56.741432,131.258606 58.901848,135.946640 58.927444,143.095963 
	C58.976845,156.897156 58.943035,170.698639 58.943722,185.000000 
z"/>
<path fill="#2D2D2D" opacity="1.000000" stroke="none" 
	d="
M121.625961,65.001633 
	C121.625954,72.328217 121.774414,79.160736 121.521286,85.978348 
	C121.458260,87.675797 120.098137,89.325089 119.334213,90.996513 
	C118.667297,89.393555 117.446419,87.798820 117.422478,86.186317 
	C117.254402,74.865967 117.367744,63.541798 117.319633,52.219158 
	C117.292023,45.721710 116.262459,44.762814 109.721390,44.743370 
	C105.407898,44.730545 101.094337,44.740944 96.756783,44.740944 
	C95.180656,41.455467 95.788734,39.931198 99.487564,40.062668 
	C103.312469,40.198616 107.147491,40.023495 110.975456,40.106277 
	C115.401161,40.201984 117.376770,38.019169 117.335190,33.710167 
	C117.299843,30.047264 117.126167,26.366079 117.438339,22.729435 
	C117.557266,21.344069 118.859291,20.060261 119.622116,18.730169 
	C120.289986,19.987453 121.438713,21.209482 121.533966,22.508751 
	C121.801147,26.152697 121.674927,29.829050 121.627174,33.491619 
	C121.568100,38.022579 123.593597,40.264236 128.278732,40.121292 
	C132.919464,39.979698 137.567886,40.090321 142.403122,40.090321 
	C143.565826,43.273117 143.227936,44.953102 139.459641,44.775902 
	C135.804489,44.604023 132.134613,44.714653 128.471619,44.746746 
	C122.950966,44.795116 121.813377,45.867977 121.659462,51.514793 
	C121.541542,55.840973 121.629570,60.172764 121.625961,65.001633 
z"/>
<path fill="#1A1A1A" opacity="1.000000" stroke="none" 
	d="
M176.048401,113.116913 
	C174.999954,110.510269 174.094116,108.255577 172.754715,104.921707 
	C178.749420,108.045441 183.779968,110.666771 189.327377,113.557426 
	C185.653824,116.089516 182.449661,118.298058 178.742004,120.853645 
	C177.854309,118.283867 177.022675,115.876358 176.048401,113.116913 
z"/>
<path fill="#1B1B1B" opacity="1.000000" stroke="none" 
	d="
M56.058109,117.845917 
	C53.960888,116.516129 52.153419,115.388870 49.410141,113.677979 
	C54.980812,110.778069 59.932823,108.200218 65.973663,105.055550 
	C63.826218,110.953629 62.114647,115.654556 60.196701,120.922302 
	C58.858204,119.922867 57.603031,118.985657 56.058109,117.845917 
z"/>
</svg>